<svg width="25" height="22" viewBox="0 0 25 22" fill="none" xmlns="http://www.w3.org/2000/svg">
<path d="M1.13636 2.30683L2.59091 0.863647L21.5909 19.8636L20.1477 21.3182L16.6477 17.8182C15.3409 18.25 13.9545 18.4773 12.5 18.4773C6.81818 18.4773 1.96591 14.9432 0 9.95456C0.784091 7.95456 2.03409 6.19319 3.625 4.79547L1.13636 2.30683ZM12.5 6.54546C13.4041 6.54546 14.2713 6.90464 14.9106 7.54396C15.5499 8.18329 15.9091 9.05041 15.9091 9.95456C15.9091 10.3523 15.8409 10.7386 15.7159 11.0909L11.3636 6.73865C11.7159 6.61365 12.1023 6.54546 12.5 6.54546ZM12.5 1.43183C18.1818 1.43183 23.0341 4.96592 25 9.95456C24.0682 12.3182 22.4886 14.3636 20.4545 15.8523L18.8409 14.2273C20.3864 13.1591 21.6591 11.7046 22.5227 9.95456C20.6477 6.13637 16.7727 3.70456 12.5 3.70456C11.2614 3.70456 10.0455 3.9091 8.90909 4.27274L7.15909 2.5341C8.79545 1.82956 10.6023 1.43183 12.5 1.43183ZM2.47727 9.95456C4.35227 13.7727 8.22727 16.2046 12.5 16.2046C13.2841 16.2046 14.0568 16.125 14.7727 15.9659L12.1818 13.3636C10.5568 13.1932 9.26136 11.8977 9.09091 10.2727L5.22727 6.39774C4.10227 7.36365 3.15909 8.56819 2.47727 9.95456Z" fill="#686868"/>
</svg>
