<svg width="19" height="20" viewBox="0 0 19 20" fill="none" xmlns="http://www.w3.org/2000/svg">
<path d="M13.8603 1.71605C14.0855 1.48904 14.3528 1.30896 14.647 1.1861C14.9413 1.06324 15.2566 1 15.575 1C15.8935 1 16.2088 1.06324 16.503 1.1861C16.7972 1.30896 17.0646 1.48904 17.2897 1.71605C17.5149 1.94307 17.6935 2.21258 17.8154 2.50919C17.9373 2.8058 18 3.12371 18 3.44476C18 3.76581 17.9373 4.08372 17.8154 4.38033C17.6935 4.67694 17.5149 4.94645 17.2897 5.17347L5.71545 16.8422L1 18.1388L2.28603 13.3848L13.8603 1.71605Z" stroke="#646CFF" stroke-width="2" stroke-linecap="round" stroke-linejoin="round"/>
</svg>
