<svg width="25" height="18" viewBox="0 0 25 18" fill="none" xmlns="http://www.w3.org/2000/svg">
<path d="M12.5 5.11364C13.4041 5.11364 14.2713 5.47281 14.9106 6.11214C15.5499 6.75146 15.9091 7.61858 15.9091 8.52273C15.9091 9.42687 15.5499 10.294 14.9106 10.9333C14.2713 11.5726 13.4041 11.9318 12.5 11.9318C11.5959 11.9318 10.7287 11.5726 10.0894 10.9333C9.45008 10.294 9.09091 9.42687 9.09091 8.52273C9.09091 7.61858 9.45008 6.75146 10.0894 6.11214C10.7287 5.47281 11.5959 5.11364 12.5 5.11364ZM12.5 0C18.1818 0 23.0341 3.53409 25 8.52273C23.0341 13.5114 18.1818 17.0455 12.5 17.0455C6.81818 17.0455 1.96591 13.5114 0 8.52273C1.96591 3.53409 6.81818 0 12.5 0ZM2.47727 8.52273C4.35227 12.3409 8.22727 14.7727 12.5 14.7727C16.7727 14.7727 20.6477 12.3409 22.5227 8.52273C20.6477 4.70455 16.7727 2.27273 12.5 2.27273C8.22727 2.27273 4.35227 4.70455 2.47727 8.52273Z" fill="white"/>
</svg>
