<svg width="35" height="39" viewBox="0 0 35 39" fill="none" xmlns="http://www.w3.org/2000/svg">
<path d="M31.1111 35H3.88889V13.6111H31.1111M31.1111 3.88889H29.1667V0H25.2778V3.88889H9.72222V0H5.83333V3.88889H3.88889C1.73056 3.88889 0 5.63889 0 7.77778V35C0 36.0314 0.409721 37.0205 1.13903 37.7499C1.86834 38.4792 2.85749 38.8889 3.88889 38.8889H31.1111C32.1425 38.8889 33.1317 38.4792 33.861 37.7499C34.5903 37.0205 35 36.0314 35 35V7.77778C35 6.74638 34.5903 5.75723 33.861 5.02792C33.1317 4.29861 32.1425 3.88889 31.1111 3.88889ZM26.3083 19.5611L24.2472 17.5L14.7583 26.9889L10.6361 22.8667L8.575 24.9278L14.7583 31.1111L26.3083 19.5611Z" fill="white"/>
</svg>
